<?xml version="1.0" encoding="utf-8"?>
<!-- Generator: Adobe Illustrator 14.0.0, SVG Export Plug-In . SVG Version: 6.00 Build 43363)  -->
<!DOCTYPE svg PUBLIC "-//W3C//DTD SVG 1.1//EN" "http://www.w3.org/Graphics/SVG/1.1/DTD/svg11.dtd">
<svg version="1.1" xmlns="http://www.w3.org/2000/svg" xmlns:xlink="http://www.w3.org/1999/xlink" x="0px" y="0px"
	 width="417.742px" height="55.645px" viewBox="0 0 417.742 55.645" enable-background="new 0 0 417.742 55.645"
	 xml:space="preserve">
<g id="Layer_1">
	<rect stroke="#000000" width="417.742" height="61.291"/>
</g>
<g id="Layer_2">
	<g id="Layer_2_1_">
		<g>
			<path fill="none" stroke="#FFFFFF" d="M38.806,50.8c0,1.547-0.773,2.32-2.32,2.32c-1.125,0-1.863-0.527-2.215-1.582l-3.34-10.02
				H14.197l-3.34,10.02c-0.352,1.055-1.09,1.582-2.215,1.582c-1.547,0-2.32-0.773-2.32-2.32c0-0.281,0.035-0.526,0.105-0.738
				L20.243,8.579c0.422-1.242,1.195-1.863,2.32-1.863s1.886,0.598,2.285,1.793L38.7,50.064C38.771,50.273,38.806,50.519,38.806,50.8
				z M22.564,16.417l-6.82,20.461h13.641L22.564,16.417z"/>
			<path fill="none" stroke="#FFFFFF" d="M51.85,29.917V50.8c0,1.547-0.773,2.32-2.32,2.32c-1.547,0-2.32-0.773-2.32-2.32V29.917
				l-13.5-19.547c-0.281-0.397-0.422-0.844-0.422-1.336c0-1.547,0.773-2.32,2.32-2.32c0.844,0,1.488,0.329,1.934,0.984L49.53,25.137
				L61.518,7.699c0.445-0.656,1.09-0.984,1.934-0.984c1.547,0,2.32,0.773,2.32,2.32c0,0.492-0.141,0.938-0.422,1.336L51.85,29.917z"
				/>
			<path fill="none" stroke="#FFFFFF" d="M96.097,41.519c0,3.188-1.137,5.918-3.41,8.19c-2.273,2.273-5.004,3.41-8.191,3.41
				c-5.719,0-10.793-1.688-15.223-5.063c-0.68-0.516-1.02-1.147-1.02-1.897c0-0.633,0.229-1.178,0.686-1.635
				s1.002-0.687,1.635-0.687c0.375,0,0.82,0.141,1.336,0.422c1.359,0.82,3.492,1.898,6.398,3.234
				c1.898,0.656,3.96,0.984,6.188,0.984c1.921,0,3.563-0.681,4.922-2.039c1.358-1.359,2.039-3,2.039-4.922
				c0-2.836-1.289-4.91-3.867-6.224l-13.043-6.68c-4.196-2.156-6.293-5.59-6.293-10.301c0-3.188,1.137-5.918,3.41-8.191
				s5.004-3.41,8.191-3.41c5.484,0,9.668,0.844,12.551,2.531c0.914,0.54,1.371,1.243,1.371,2.109c0,0.633-0.229,1.178-0.686,1.635
				s-1.002,0.686-1.635,0.686c-0.234,0-0.563-0.082-0.984-0.246c-3.563-1.383-7.102-2.074-10.617-2.074
				c-1.922,0-3.563,0.681-4.922,2.039c-1.359,1.359-2.039,3-2.039,4.922c0,2.837,1.266,4.899,3.797,6.188l13.043,6.68
				C93.975,33.363,96.097,36.808,96.097,41.519z"/>
			<path fill="none" stroke="#FFFFFF" d="M101.578,50.8V9.035c0-1.547,0.773-2.32,2.32-2.32c1.547,0,2.32,0.773,2.32,2.32v16.242
				h18.563V9.035c0-1.547,0.773-2.32,2.32-2.32s2.32,0.773,2.32,2.32V50.8c0,1.547-0.773,2.32-2.32,2.32s-2.32-0.773-2.32-2.32
				V29.917h-18.563V50.8c0,1.547-0.773,2.32-2.32,2.32C102.351,53.121,101.578,52.347,101.578,50.8z"/>
			<path fill="none" stroke="#FFFFFF" d="M167.384,50.8c0,1.547-0.771,2.32-2.32,2.32c-1.125,0-1.861-0.527-2.215-1.582
				l-3.339-10.02h-16.732l-3.34,10.02c-0.352,1.055-1.09,1.582-2.215,1.582c-1.547,0-2.32-0.773-2.32-2.32
				c0-0.281,0.035-0.526,0.105-0.738l13.816-41.483c0.422-1.242,1.195-1.863,2.32-1.863c1.125,0,1.887,0.598,2.286,1.793
				l13.849,41.556C167.349,50.273,167.384,50.519,167.384,50.8z M151.145,16.417l-6.82,20.461h13.64L151.145,16.417z"/>
			<path fill="none" stroke="#FFFFFF" d="M221.588,33.574l8.086,16.172c0.188,0.375,0.281,0.727,0.281,1.055
				c0,0.609-0.234,1.148-0.703,1.617s-1.008,0.703-1.617,0.703c-0.984,0-1.688-0.434-2.109-1.301l-8.646-17.297
				c-0.211,0.022-0.492,0.035-0.846,0.035h-9.279v16.241c0,1.548-0.773,2.32-2.322,2.32c-1.546,0-2.32-0.772-2.32-2.32V9.034
				c0-1.547,0.773-2.32,2.32-2.32h11.603c3.867,0,7.154,1.354,9.861,4.062s4.061,5.993,4.061,9.86
				C229.956,27.035,227.167,31.347,221.588,33.574z M206.753,11.354v18.563h9.281c2.602,0,4.799-0.896,6.592-2.688
				s2.689-3.99,2.689-6.592c0-2.603-0.896-4.8-2.689-6.593s-3.99-2.688-6.592-2.688h-9.281V11.354z"/>
			<path fill="none" stroke="#FFFFFF" d="M268.12,50.8c0,1.547-0.771,2.32-2.318,2.32c-1.125,0-1.863-0.527-2.215-1.582
				l-3.342-10.02h-16.732l-3.34,10.02c-0.354,1.055-1.09,1.582-2.215,1.582c-1.549,0-2.32-0.773-2.32-2.32
				c0-0.281,0.035-0.526,0.104-0.738l13.816-41.483c0.422-1.242,1.195-1.863,2.32-1.863s1.887,0.598,2.285,1.793l13.852,41.556
				C268.086,50.273,268.12,50.519,268.12,50.8z M251.879,16.417l-6.82,20.461H258.7L251.879,16.417z"/>
			<path fill="none" stroke="#FFFFFF" d="M273.803,50.8V9.035c0-1.547,0.771-2.32,2.32-2.32c1.547,0,2.318,0.773,2.318,2.32v16.242
				h18.564V9.035c0-1.547,0.771-2.32,2.318-2.32c1.549,0,2.32,0.773,2.32,2.32V50.8c0,1.547-0.771,2.32-2.32,2.32
				c-1.547,0-2.318-0.773-2.318-2.32V29.917h-18.564V50.8c0,1.547-0.771,2.32-2.318,2.32
				C274.575,53.121,273.803,52.347,273.803,50.8z"/>
			<path fill="none" stroke="#FFFFFF" d="M338.292,6.714c1.547,0,2.32,0.773,2.32,2.32V50.8c0,1.547-0.773,2.32-2.32,2.32
				s-2.32-0.773-2.32-2.32V16.664l-9.457,14.168c-0.633,0.938-1.348,1.406-2.145,1.406c-0.82,0-1.547-0.469-2.18-1.406
				l-9.422-14.168V50.8c0,1.547-0.773,2.32-2.32,2.32s-2.32-0.773-2.32-2.32V9.035c0-1.547,0.773-2.32,2.32-2.32
				c0.844,0,1.523,0.387,2.039,1.16l11.883,17.824l11.953-17.965C336.768,7.055,337.424,6.714,338.292,6.714z"/>
			<path fill="none" stroke="#FFFFFF" d="M378.577,50.8c0,1.547-0.773,2.32-2.32,2.32c-1.125,0-1.863-0.527-2.215-1.582l-3.34-10.02
				h-16.734l-3.34,10.02c-0.352,1.055-1.09,1.582-2.215,1.582c-1.547,0-2.32-0.773-2.32-2.32c0-0.281,0.035-0.526,0.105-0.738
				l13.816-41.483c0.422-1.242,1.195-1.863,2.32-1.863s1.887,0.598,2.283,1.793l13.854,41.556
				C378.542,50.273,378.577,50.519,378.577,50.8z M362.334,16.417l-6.82,20.461h13.641L362.334,16.417z"/>
			<path fill="none" stroke="#FFFFFF" d="M406.661,41.835V9.035c0-1.547,0.773-2.32,2.32-2.32s2.32,0.773,2.32,2.32V50.8
				c0,1.547-0.773,2.32-2.32,2.32c-0.938,0-1.617-0.387-2.039-1.16l-18.844-33.996V50.8c0,1.547-0.773,2.32-2.32,2.32
				s-2.318-0.773-2.318-2.32V9.035c0-1.547,0.771-2.32,2.318-2.32c0.914,0,1.629,0.457,2.146,1.371L406.661,41.835z"/>
		</g>
	</g>
</g>
</svg>
