<?xml version="1.0" encoding="utf-8"?>
<!-- Generator: Adobe Illustrator 14.0.0, SVG Export Plug-In . SVG Version: 6.00 Build 43363)  -->
<!DOCTYPE svg PUBLIC "-//W3C//DTD SVG 1.1//EN" "http://www.w3.org/Graphics/SVG/1.1/DTD/svg11.dtd">
<svg version="1.1" id="Layer_1" xmlns="http://www.w3.org/2000/svg" xmlns:xlink="http://www.w3.org/1999/xlink" x="0px" y="0px"
	 width="640px" height="480px" viewBox="0 0 640 480" enable-background="new 0 0 640 480" xml:space="preserve">
<g id="Layer_1_1_">
	<rect x="-100.222" y="-84.213" stroke="#000000" width="801.08" height="717.072"/>
</g>
<g id="Layer_2">
	<g>
		<path fill="none" stroke="#FFFFFF" d="M113.226,284.091c0,1.547-0.773,2.32-2.32,2.32c-1.125,0-1.863-0.527-2.215-1.582
			l-3.34-10.02H88.617l-3.34,10.02c-0.352,1.055-1.09,1.582-2.215,1.582c-1.547,0-2.32-0.773-2.32-2.32
			c0-0.281,0.035-0.526,0.105-0.738l13.816-41.483c0.422-1.242,1.195-1.863,2.32-1.863s1.886,0.598,2.285,1.793l13.852,41.556
			C113.19,283.563,113.226,283.81,113.226,284.091z M96.983,249.708l-6.82,20.461h13.641L96.983,249.708z"/>
		<path fill="none" stroke="#FFFFFF" d="M126.27,263.208v20.883c0,1.547-0.773,2.32-2.32,2.32c-1.547,0-2.32-0.773-2.32-2.32
			v-20.883l-13.5-19.547c-0.281-0.397-0.422-0.844-0.422-1.336c0-1.547,0.773-2.32,2.32-2.32c0.844,0,1.488,0.329,1.934,0.984
			l11.988,17.438l11.988-17.438c0.445-0.656,1.09-0.984,1.934-0.984c1.547,0,2.32,0.773,2.32,2.32c0,0.492-0.141,0.938-0.422,1.336
			L126.27,263.208z"/>
		<path fill="none" stroke="#FFFFFF" d="M170.517,274.81c0,3.188-1.137,5.918-3.41,8.19c-2.273,2.273-5.004,3.41-8.191,3.41
			c-5.719,0-10.793-1.688-15.223-5.063c-0.68-0.516-1.02-1.147-1.02-1.897c0-0.633,0.229-1.178,0.686-1.635s1.002-0.687,1.635-0.687
			c0.375,0,0.82,0.141,1.336,0.422c1.359,0.82,3.492,1.898,6.398,3.234c1.898,0.656,3.96,0.984,6.188,0.984
			c1.921,0,3.563-0.681,4.922-2.039c1.358-1.359,2.039-3,2.039-4.922c0-2.836-1.289-4.91-3.867-6.224l-13.043-6.68
			c-4.196-2.156-6.293-5.59-6.293-10.301c0-3.188,1.137-5.918,3.41-8.191s5.004-3.41,8.191-3.41c5.484,0,9.668,0.844,12.551,2.531
			c0.914,0.54,1.371,1.243,1.371,2.109c0,0.633-0.229,1.178-0.686,1.635s-1.002,0.686-1.635,0.686c-0.234,0-0.563-0.082-0.984-0.246
			c-3.563-1.383-7.102-2.074-10.617-2.074c-1.922,0-3.563,0.681-4.922,2.039c-1.359,1.359-2.039,3-2.039,4.922
			c0,2.837,1.266,4.899,3.797,6.188l13.043,6.68C168.395,266.653,170.517,270.099,170.517,274.81z"/>
		<path fill="none" stroke="#FFFFFF" d="M175.998,284.091v-41.766c0-1.547,0.773-2.32,2.32-2.32c1.547,0,2.32,0.773,2.32,2.32
			v16.242h18.563v-16.242c0-1.547,0.773-2.32,2.32-2.32s2.32,0.773,2.32,2.32v41.766c0,1.547-0.773,2.32-2.32,2.32
			s-2.32-0.773-2.32-2.32v-20.883h-18.563v20.883c0,1.547-0.773,2.32-2.32,2.32C176.771,286.411,175.998,285.638,175.998,284.091z"
			/>
		<path fill="none" stroke="#FFFFFF" d="M241.807,284.091c0,1.547-0.773,2.32-2.32,2.32c-1.125,0-1.863-0.527-2.215-1.582
			l-3.34-10.02h-16.734l-3.34,10.02c-0.352,1.055-1.09,1.582-2.215,1.582c-1.547,0-2.32-0.773-2.32-2.32
			c0-0.281,0.035-0.526,0.105-0.738l13.816-41.483c0.422-1.242,1.195-1.863,2.32-1.863s1.887,0.598,2.285,1.793l13.852,41.556
			C241.771,283.563,241.807,283.81,241.807,284.091z M225.564,249.708l-6.82,20.461h13.641L225.564,249.708z"/>
		<path fill="none" stroke="#FFFFFF" d="M296.009,266.864l8.086,16.172c0.188,0.375,0.281,0.727,0.281,1.055
			c0,0.609-0.234,1.148-0.703,1.617s-1.008,0.703-1.617,0.703c-0.984,0-1.688-0.434-2.109-1.301l-8.647-17.297
			c-0.211,0.022-0.492,0.035-0.845,0.035h-9.28v16.241c0,1.548-0.773,2.32-2.32,2.32s-2.32-0.772-2.32-2.32v-41.766
			c0-1.547,0.773-2.32,2.32-2.32h11.603c3.866,0,7.153,1.354,9.86,4.062s4.062,5.993,4.062,9.86
			C304.376,260.325,301.587,264.638,296.009,266.864z M281.173,244.645v18.563h9.281c2.602,0,4.799-0.896,6.592-2.688
			s2.688-3.99,2.688-6.592c0-2.603-0.896-4.8-2.688-6.593s-3.99-2.688-6.592-2.688h-9.281V244.645z"/>
		<path fill="none" stroke="#FFFFFF" d="M342.54,284.091c0,1.547-0.772,2.32-2.319,2.32c-1.125,0-1.863-0.527-2.215-1.582
			l-3.341-10.02h-16.733l-3.34,10.02c-0.353,1.055-1.09,1.582-2.215,1.582c-1.548,0-2.32-0.773-2.32-2.32
			c0-0.281,0.035-0.526,0.104-0.738l13.816-41.483c0.422-1.242,1.195-1.863,2.32-1.863s1.887,0.598,2.285,1.793l13.852,41.556
			C342.506,283.563,342.54,283.81,342.54,284.091z M326.299,249.708l-6.82,20.461h13.642L326.299,249.708z"/>
		<path fill="none" stroke="#FFFFFF" d="M348.223,284.091v-41.766c0-1.547,0.772-2.32,2.32-2.32c1.547,0,2.319,0.773,2.319,2.32
			v16.242h18.563v-16.242c0-1.547,0.772-2.32,2.319-2.32c1.548,0,2.32,0.773,2.32,2.32v41.766c0,1.547-0.772,2.32-2.32,2.32
			c-1.547,0-2.319-0.773-2.319-2.32v-20.883h-18.563v20.883c0,1.547-0.772,2.32-2.319,2.32
			C348.995,286.411,348.223,285.638,348.223,284.091z"/>
		<path fill="none" stroke="#FFFFFF" d="M412.712,240.005c1.547,0,2.319,0.773,2.319,2.32v41.766c0,1.547-0.772,2.32-2.319,2.32
			s-2.32-0.773-2.32-2.32v-34.137l-9.457,14.168c-0.633,0.938-1.348,1.406-2.145,1.406c-0.82,0-1.547-0.469-2.181-1.406
			l-9.422-14.168v34.137c0,1.547-0.772,2.32-2.319,2.32c-1.548,0-2.32-0.773-2.32-2.32v-41.766c0-1.547,0.772-2.32,2.32-2.32
			c0.844,0,1.522,0.387,2.038,1.16l11.884,17.824l11.953-17.965C411.188,240.345,411.845,240.005,412.712,240.005z"/>
		<path fill="none" stroke="#FFFFFF" d="M452.997,284.091c0,1.547-0.773,2.32-2.32,2.32c-1.125,0-1.863-0.527-2.215-1.582
			l-3.34-10.02h-16.734l-3.34,10.02c-0.353,1.055-1.09,1.582-2.215,1.582c-1.547,0-2.32-0.773-2.32-2.32
			c0-0.281,0.035-0.526,0.105-0.738l13.815-41.483c0.422-1.242,1.195-1.863,2.32-1.863s1.887,0.598,2.284,1.793l13.853,41.556
			C452.962,283.563,452.997,283.81,452.997,284.091z M436.755,249.708l-6.82,20.461h13.641L436.755,249.708z"/>
		<path fill="none" stroke="#FFFFFF" d="M481.081,275.126v-32.801c0-1.547,0.773-2.32,2.32-2.32s2.32,0.773,2.32,2.32v41.766
			c0,1.547-0.773,2.32-2.32,2.32c-0.938,0-1.617-0.387-2.039-1.16l-18.844-33.996v32.836c0,1.547-0.773,2.32-2.32,2.32
			s-2.319-0.773-2.319-2.32v-41.766c0-1.547,0.772-2.32,2.319-2.32c0.914,0,1.629,0.457,2.146,1.371L481.081,275.126z"/>
	</g>
</g>
</svg>
